<svg id="Layer_1" data-name="Layer 1" xmlns="http://www.w3.org/2000/svg" viewBox="0 0 54.79 62.46"><defs><style>.cls-1{fill:#231f20;}</style></defs><title>logo</title><path class="cls-1" d="M42.41,5.67,31.81,29.5,27.4,39.42l-2.76-6.21L12.39,5.67H5.67V54a15.8,15.8,0,0,0,5.81,2.79h1.19V22.25l10.72,24,1.51,3.4h5L30.64,48,42.13,21.55V56.79h7V5.67Z"/><path class="cls-1" d="M24.64,5.67V40.51a12.09,12.09,0,0,1-1.25,5.78,7.41,7.41,0,0,1-1.05,1.53,8.21,8.21,0,0,1-6.49,2.61A10,10,0,0,1,12.67,50a8.26,8.26,0,0,1-1.14-.47A6.78,6.78,0,0,1,8.68,46.8L5.67,49v5a15.8,15.8,0,0,0,5.81,2.79,17.33,17.33,0,0,0,4.37.53,17.75,17.75,0,0,0,8.65-2A13.41,13.41,0,0,0,30.64,48a21.66,21.66,0,0,0,1.17-7.41V5.67Z"/></svg>